# xmcd CD database file
#
# Track frame offsets:
#	150
#	14528
#	31901
#	48442
#	66394
#	81992
#	98371
#	116517
#	129309
#	145385
#	163796
#	178954
#	190833
#	204702
#	219799
#	245092
#	258411
#	274811
#	293217
#
# Disc length: 4084 seconds
#
# Revision: 0
# Processed by: cddbd v1.5.1PL2 Copyright (c) Steve Scherf et al.
# Submitted via: CDex 1.51
#
DISCID=1f0ff213
DTITLE=Promo Only Canada - November 2005 Country Radio
DYEAR=2005
DGENRE=Country
TTITLE0=The Road Hammers - East Bound And Down
TTITLE1=Johnny Reid - Missing An Angel
TTITLE2=Emerson Drive - Still Got Yesterday
TTITLE3=Kenny Chesney - Who You'd Be Today
TTITLE4=Big and Rich - Comin To Your City
TTITLE5=Trace Adkins - Honky Tonk Badonkadonk
TTITLE6=Sugarland - Just Might (Make Me Believe)
TTITLE7=Hot Apple Pie - We're Makin' Up (Album Version)
TTITLE8=Tim McGraw - My Old Friend (Radio)
TTITLE9=Brad Paisley - When I Get Where I Am Going (Album Version)
TTITLE10=Van Zant - Nobody Gonna Tell Me What To Do
TTITLE11=Blake Shelton - Nobody But Me
TTITLE12=Miranda Lambert - Kerosene (Album Version)
TTITLE13=Cross Canadian Ragweed - Fightin' For (Album Version)
TTITLE14=Brooks and Dunn - Believe
TTITLE15=Ray Scott - My Kind Of Music (Clean)
TTITLE16=Dwight Yoakam - Blame The Vain (Album)
TTITLE17=Brice Long - Anywhere But Here (Album)
TTITLE18=Cuff The Duke - Take My Money And Run
EXTD=YEAR: 2005
EXTT0=
EXTT1=
EXTT2=
EXTT3=
EXTT4=
EXTT5=
EXTT6=
EXTT7=
EXTT8=
EXTT9=
EXTT10=
EXTT11=
EXTT12=
EXTT13=
EXTT14=
EXTT15=
EXTT16=
EXTT17=
EXTT18=
PLAYORDER=
